<svg xmlns="http://www.w3.org/2000/svg" viewBox="0 0 235.04 61.6"><defs><style>.cls-1{fill:#ef4348;}.cls-2{fill:#ef8689;}.cls-3{fill:#ef7579;}.cls-4{fill:#ef9e89;}</style></defs><title>Asset 2</title><g id="Layer_2" data-name="Layer 2"><g id="Layer_1-2" data-name="Layer 1"><path class="cls-1" d="M42.94,22.23C42.94,9.76,35,1,19.09,1H0V60.67H10.52V43.36h6.54c1.86,0,3.64-.08,5.34-.25L35,60.67H47.35L32.07,40.48C39.54,37,42.94,30.46,42.94,22.23ZM18.33,34H10.52V10.69h7.81c9.93,0,13.24,5,13.24,11.54S28.17,34,18.33,34Z"/><path class="cls-1" d="M81.63,0C63.73,0,49.81,13.58,49.81,30.8c0,17.65,13.58,30.8,31.82,30.8s31.9-13.23,31.9-30.8C113.53,13,100.13,0,81.63,0Z"/><path class="cls-1" d="M145,1H122.53V60.67H145c18.24,0,31.9-12.81,31.9-29.87C176.92,13.49,163.51,1,145,1Zm.08,50h-12V10.69h12c12,0,20.53,8.57,20.53,20.28S156.64,51,145.1,51Z"/><path class="cls-1" d="M210,0c-15.53,0-24.69,8.32-24.69,26.64v34h10.61V46.42h28.51V60.67H235v-34C235,8.32,225.54,0,210,0Zm14.43,38c-2.8,0-23.25,0-28.51.09V26.64c0-12,5.94-17,14.25-17S224.44,14,224.44,26.73Z"/><g id="_3fPAnj" data-name="3fPAnj"><path class="cls-2" d="M82.55,50.93,72.89,29H92.2Z"/><path class="cls-3" d="M58.86,28.92c3.62,0,7,0,10.34,0,.58,0,.69.38.87.76L78.8,48.88a5.92,5.92,0,0,1,.53,1.57Z"/><path class="cls-3" d="M105.53,28.92,85.73,50.49l-.11-.06q1-2.31,2.09-4.62c2.44-5.37,4.89-10.74,7.3-16.13a1.11,1.11,0,0,1,1.2-.78C99.22,28.93,102.24,28.92,105.53,28.92Z"/><path class="cls-4" d="M91.28,26h-17l8.52-8.9Z"/><path class="cls-2" d="M71.34,25.45l-4-9.15H80.09Z"/><path class="cls-2" d="M93.89,25.15l-8.45-8.83H97.77C96.48,19.25,95.21,22.13,93.89,25.15Z"/><path class="cls-3" d="M105.58,26H96.64L100.19,18Z"/><path class="cls-3" d="M68.46,26.05H59.65L65,18.15Z"/></g></g></g></svg>