<svg width="0" height="0">
	<defs>    
	<clipPath id="clipping5" clipPathUnits="objectBoundingBox">

	<polygon points="1.00 .50,.8470057014808336 .545684167277018,.910518476172854 .6099980941685713,.8233578363789503 .6339392013277814,.9330127018922194 .75,.7776736691019323 .7130665001530522,.8005203820042827 .8005203820042827,.7130665001530522 .7776736691019323,.75 .9330127018922192,.6339392013277814 .8233578363789503,.6099980941685714 .910518476172854,.5456841672770181 .8470057014808336,.50 1.00,.454315832722982 .8470057014808336,.39000190583142874 .910518476172854,.36606079867221865 .8233578363789505,.2500000000000001 .9330127018922194,.28693349984694787 .7776736691019323,.19947961799571733 .8005203820042827,.2223263308980677 .7130665001530522,.06698729810778076 .7500000000000001,.17664216362104966 .6339392013277815,.08948152382714603 .6099980941685715,.15299429851916635 .54568416727701816,0 .5000000000000001,.15299429851916635 .45431583272298205,.0894815238271459 .3900019058314288,.1766421636210496 .3660607986722188,.06698729810778062 .25000000000000014,.2223263308980676 .28693349984694787,.19947961799571715 .19947961799571747,.2869334998469477 .22232633089806775,.2499999999999998 .06698729810778083,.3660607986722184 .17664216362104973,.3900019058314284 .08948152382714603,.4543158327229816 .15299429851916642,.4999999999999999 0,.54568416727701795 .15299429851916635,.6099980941685711 .0894815238271459,.6339392013277812 .1766421636210496,.7499999999999997 .066987298107780475,.713066500153052 .2223263308980675,.8005203820042826 .19947961799571722,.7776736691019323 .2869334998469477,.9330127018922192 .2499999999999998,.8233578363789502 .3660607986722184,.910518476172854 .3900019058314283,.8470057014808336 .4543158327229816"/>
	</clipPath>
		 </defs>
		</svg>